PathFileType	4	(X/Y/Z)	2014001\dynamic\2014001_C3_05.trc
DataRate	CameraRate	NumFrames	NumMarkers	Units	OrigDataRate	OrigDataStartFrame	OrigNumFrames
100.000000	100.000000	4	52	mm	100.000000	0	172
Frame#	Time	L_IAS			L_IPS			R_IPS			R_IAS			L_FTC			L_FLE			L_FME			L_FAX			L_TTC			L_FAL			L_TAM			L_FCC			L_FM1			L_FM2			L_FM5			R_FTC			R_FLE			R_FME			R_FAX			R_TTC			R_FAL			R_TAM			R_FCC			R_FM1			R_FM2			R_FM5			CV7			TV10			SXS			SJN			L_SIA			L_SRS			L_SAA			L_SAE			L_HLE			L_HME			L_UOA			L_RSP			L_UHE			L_HM2			L_HM5			R_SIA			R_SRS			R_SAA			R_SAE			R_HLE			R_HME			R_UOA			R_RSP			R_UHE			R_HM2			R_HM5			
		X1	Y1	Z1	X2	Y2	Z2	X3	Y3	Z3	X4	Y4	Z4	X5	Y5	Z5	X6	Y6	Z6	X7	Y7	Z7	X8	Y8	Z8	X9	Y9	Z9	X10	Y10	Z10	X11	Y11	Z11	X12	Y12	Z12	X13	Y13	Z13	X14	Y14	Z14	X15	Y15	Z15	X16	Y16	Z16	X17	Y17	Z17	X18	Y18	Z18	X19	Y19	Z19	X20	Y20	Z20	X21	Y21	Z21	X22	Y22	Z22	X23	Y23	Z23	X24	Y24	Z24	X25	Y25	Z25	X26	Y26	Z26	X27	Y27	Z27	X28	Y28	Z28	X29	Y29	Z29	X30	Y30	Z30	X31	Y31	Z31	X32	Y32	Z32	X33	Y33	Z33	X34	Y34	Z34	X35	Y35	Z35	X36	Y36	Z36	X37	Y37	Z37	X38	Y38	Z38	X39	Y39	Z39	X40	Y40	Z40	X41	Y41	Z41	X42	Y42	Z42	X43	Y43	Z43	X44	Y44	Z44	X45	Y45	Z45	X46	Y46	Z46	X47	Y47	Z47	X48	Y48	Z48	X49	Y49	Z49	X50	Y50	Z50	X51	Y51	Z51	X52	Y52	Z52	

1	0	370.1659545898439	841.6378784179692	-189.6785583496094	277.6384887695314	889.681518554688	-358.1770019531251	188.5510711669922	883.2656250000005	-355.0856933593751	128.4894409179688	855.0194702148442	-170.2832336425782	419.6563720703127	769.8544311523442	-285.1839599609376	366.7324829101564	430.4314880371096	-386.1105041503909	258.728973388672	414.954040527344	-353.1885986328126	366.457000732422	376.7761840820314	-422.3881530761721	326.0348205566407	340.3381652832032	-365.725799560547	307.503143310547	72.57586669921878	-529.3948974609377	223.9484863281251	78.77146911621097	-495.069030761719	257.6499328613282	40.68382644653322	-573.3177490234377	251.1256561279298	22.55614280700684	-391.007751464844	314.1132202148439	30.64783668518068	-387.2649536132815	353.9281616210939	17.95343017578126	-448.3347167968752	62.15945053100589	752.5180664062502	-254.5880889892579	85.7558288574219	433.5930175781252	-100.7300262451172	205.8202362060548	429.3710632324221	-70.76689147949222	83.07822418212893	370.7320251464845	-90.11550140380862	124.8446426391602	392.0530700683596	-22.6844882965088	116.7304687500001	80.3803634643555	40.20168685913087	193.499725341797	117.2552566528321	75.359489440918	179.7764434814454	23.97282218933106	35.72988510131837	163.1260833740235	122.1268310546876	193.5838317871095	106.247787475586	123.0846405029297	181.7965850830079	75.64257812500003	78.75183868408206	146.8106231689454	241.2172851562501	1352.942138671875	-303.1121215820314	251.3279571533204	1124.6982421875	-372.527313232422	240.3388824462892	1120.675659179688	-137.8351593017579	232.8570556640626	1283.92431640625	-175.4159088134766	352.9295043945314	1166.075439453125	-361.1262207031251	336.0260314941407	1295.211059570313	-337.8997192382814	436.4501953125002	1297.022094726563	-250.779510498047	412.1840515136721	1307.10302734375	-214.3664703369142	513.9782714843752	1033.134887695313	-178.9091491699219	448.8132324218752	985.303100585938	-209.654754638672	500.5641784667971	983.0617065429692	-201.5290985107423	421.0792236328127	887.616333007813	4.804975032806398	495.1974792480471	859.5693969726567	-8.741258621215824	409.248229980469	844.906860351563	80.17016601562503	484.0992126464846	793.017944335938	33.85206604003908	152.1838684082032	1160.15380859375	-390.7061462402346	165.7396850585938	1285.100463867188	-357.7737426757814	53.91499328613284	1277.7353515625	-297.2486877441407	55.30354309082034	1280.558837890625	-245.9449768066407	11.19445133209229	989.4721679687505	-353.7754516601564	92.10393524169925	978.7324218750005	-363.1127929687501	48.7609786987305	974.6873168945317	-379.6869506835939	20.95100212097169	764.2458496093752	-302.7413330078126	-24.3214569091797	776.5410156250005	-368.8941955566407	3.764024019241335	668.6997070312502	-302.0373535156251	-19.83189773559571	701.7075195312502	-396.657165527344	
2	0.01	370.1051635742189	840.5560913085942	-177.3015136718751	276.1188354492189	888.3831176757817	-345.3958435058595	187.1392211914063	881.808715820313	-342.0113525390626	128.2730407714844	853.7471313476567	-156.8684997558594	419.1794738769534	769.2482910156255	-273.6839294433595	367.0598754882814	430.8223266601565	-377.0538940429689	259.1184692382814	414.451843261719	-343.794158935547	366.8339843750001	377.6909179687501	-414.171325683594	326.5892639160157	340.0335083007814	-358.2898559570314	308.702850341797	75.57205963134768	-528.1236572265627	225.0867309570314	81.32657623291018	-493.8922424316409	258.8811645507814	44.90565490722658	-572.9724731445315	251.5863342285157	22.84004211425782	-390.8253173828127	314.4937133789064	30.57775115966798	-386.7254638671877	354.1574707031251	17.75288009643555	-448.0067138671877	61.35657882690433	751.2627563476565	-240.5305480957032	86.651969909668	432.8771667480471	-86.54656982421878	206.8667602539064	428.9716796875002	-57.93935012817386	84.15895080566409	369.658905029297	-76.20941925048831	126.4888076782227	391.0352172851565	-9.037180900573734	119.0698394775391	79.14859008789065	52.13501739501956	196.0169372558595	115.7499389648438	87.0983810424805	182.1758728027344	23.10944557189942	46.78283691406251	166.1884307861329	119.6280517578126	205.4417877197267	109.175895690918	120.3920364379883	194.1183319091798	78.71351623535159	76.24928283691409	158.9119415283204	239.4931640625001	1351.454956054688	-290.3052978515626	249.8543853759767	1123.450439453125	-359.8820190429689	239.0467834472657	1119.26123046875	-125.2322540283204	231.2369537353517	1282.5068359375	-162.8092346191407	351.2540588378907	1164.969970703125	-348.6741333007814	334.4039611816407	1294.133911132813	-325.2784729003907	434.826599121094	1295.614379882813	-238.0471954345704	410.5045471191409	1305.647583007813	-201.5935363769532	512.4577636718752	1031.744018554688	-167.0345764160157	447.2805175781252	983.9130249023442	-197.635955810547	498.955505371094	981.6964721679692	-189.7052764892579	420.2233581542971	885.644165039063	16.5080680847168	494.3110961914065	857.712280273438	2.782364368438722	408.6950378417971	842.8941040039067	91.871696472168	483.473083496094	791.1667480468755	45.33460617065431	150.9270935058594	1158.76171875	-378.2691345214845	164.2478485107422	1284.012939453125	-345.419403076172	52.40750503540042	1276.03759765625	-284.8099975585939	53.74861907958987	1278.835815429688	-233.4405670166017	10.57935619354248	987.5339965820317	-341.1831054687501	91.571891784668	976.8959960937505	-350.0631408691407	48.34128570556643	972.789916992188	-366.9060058593751	20.46080780029298	762.3623657226565	-289.898406982422	-24.52513122558595	774.5057983398442	-356.2329101562501	3.422515630722048	666.9506835937502	-288.9313049316407	-19.7245216369629	699.7446289062502	-383.9927978515626	
3	0.02	369.7712707519532	839.7653808593755	-164.4983367919922	274.6194458007814	887.3374633789067	-332.2511596679689	185.7205200195313	880.671264648438	-328.6126403808595	127.9403381347657	852.9310913085942	-143.1489257812501	418.5386962890627	768.7659301757817	-261.7559814453126	367.5023803710939	431.3371887207034	-367.3791809082032	259.5614318847657	413.9867248535159	-333.7852783203126	367.2957458496095	378.776824951172	-405.4275207519534	327.3023071289064	339.8242797851564	-350.3430480957032	310.0714416503907	78.97358703613284	-526.6262207031252	226.4558563232423	84.26588439941409	-492.4158630371096	260.2429504394532	49.69374465942386	-572.3865356445315	252.0775909423829	23.12350654602051	-390.6602783203127	314.894256591797	30.42649459838869	-386.2329406738284	354.3404235839845	17.51402282714844	-447.6976318359377	60.41699218750003	750.4944458007815	-226.1174621582032	87.44709014892581	432.5464782714846	-72.00258636474612	207.7552795410157	428.8924865722659	-44.91376876831056	85.08732604980472	368.9002380371095	-62.16666030883792	128.1974029541016	389.9609985351565	4.660854816436769	121.3557586669922	77.49485778808597	61.92543029785159	198.5587921142579	113.4889221191407	96.80187225341803	184.4036102294922	21.96267700195313	55.03896331787112	169.3781890869141	115.2681350708008	215.2649383544923	112.2193222045899	115.9872970581055	204.4450683593751	81.81373596191409	72.45375823974612	168.5852966308594	237.6204071044923	1350.223510742188	-277.4501342773439	248.2382812500001	1122.374755859375	-347.0315856933595	237.6340637207032	1118.19970703125	-112.4338912963868	229.5339508056642	1281.41943359375	-150.1110992431641	349.414031982422	1164.065307617188	-336.1531372070314	332.609344482422	1293.260009765625	-312.6417846679689	433.0766601562502	1294.458251953125	-225.3862304687501	408.755065917969	1304.462280273438	-188.875228881836	510.7681274414065	1030.51611328125	-155.4478759765626	445.5395202636721	982.755004882813	-185.8770294189454	497.123962402344	980.5501098632817	-178.2424621582032	419.4758911132815	883.371215820313	27.71618080139162	493.4894104003909	855.588012695313	13.60848331451417	408.3825683593752	840.3757324218755	102.980827331543	483.0303649902346	788.9541015625005	55.95844650268558	149.4271240234376	1157.6337890625	-365.6184387207032	162.5256805419922	1283.121459960938	-332.8394165039064	50.72683334350589	1274.630615234375	-272.0839843750001	52.08497238159183	1277.363403320313	-220.6410980224611	9.788614273071293	985.8596191406255	-328.2239074707032	90.84881591796878	975.3457031250005	-336.7239379882814	47.71608734130861	971.159790039063	-353.7901306152345	19.88903045654298	760.7844238281252	-276.6030273437501	-24.85968017578126	772.7077636718755	-343.076629638672	3.046809434890749	665.4415283203127	-275.4411621093751	-19.7287712097168	698.0065917968752	-370.7988586425782	
4	0.03	369.1460876464845	839.2523803710942	-151.2526855468751	273.1697387695314	886.5678710937505	-318.7435913085939	184.313461303711	879.8867797851567	-314.8943176269532	127.4894485473633	852.561645507813	-129.1441650390626	417.7369384765627	768.4035644531255	-249.3702545166017	368.0831298828126	431.9586181640627	-357.0487060546876	260.0821838378907	413.5288391113284	-323.1135559082032	367.8575439453126	380.0308532714845	-396.1267700195315	328.2128295898439	339.6989746093751	-341.8472595214845	311.5970764160157	82.8024597167969	-524.8286132812502	228.0604705810548	87.58790588378909	-490.5363769531252	261.702606201172	55.08441543579104	-571.4411621093752	252.5781860351564	23.38941764831544	-390.5405578613284	315.2949218750001	30.17446327209474	-385.834411621094	354.4598999023439	17.27025222778321	-447.4190063476565	59.34597778320315	750.2159423828127	-211.3977966308595	88.10962677001956	432.5922851562502	-57.16498184204104	208.4551544189454	429.1024475097659	-31.75508308410646	85.81793212890628	368.4719848632814	-47.98502731323244	129.9197540283204	388.8970947265627	18.39886283874512	123.4739837646485	75.54409790039065	69.91874694824222	201.0149230957032	110.6496582031251	104.7706680297852	186.3418731689454	20.66561889648438	60.89493179321292	172.6446533203126	109.3046493530274	223.3498992919923	115.3149566650391	110.1079559326172	213.1020660400392	84.83332824707034	67.59404754638675	176.2002410888672	235.6165618896486	1349.265869140625	-264.5675659179689	246.4884338378907	1121.475952148438	-333.9782104492189	236.100799560547	1117.514526367188	-99.44055938720709	227.7641448974611	1280.686401367188	-137.3281707763672	347.4153442382814	1163.354248046875	-323.5598144531251	330.6517639160157	1292.587524414063	-300.0020141601564	431.2131652832034	1293.56640625	-212.8173217773439	406.9518127441409	1303.56689453125	-176.2331542968751	508.9272155761721	1029.476440429688	-144.1488800048829	443.6060791015627	981.8513793945317	-174.3740844726563	495.091247558594	979.648071289063	-167.1361389160157	418.8404846191409	880.8283081054692	38.41645431518556	492.7377929687502	853.2310180664067	23.73263549804688	408.3022155761721	837.3777465820317	113.477767944336	482.769714355469	786.413696289063	65.71530914306643	147.6889801025391	1156.76220703125	-352.7454833984376	160.5828704833985	1282.411865234375	-320.0252990722657	48.88277435302737	1273.530517578125	-259.0779724121095	50.3216247558594	1276.167602539063	-207.5603637695314	8.810786247253422	984.4734497070317	-314.9011230468751	89.9199142456055	974.1073608398442	-323.1181640625001	46.8658790588379	969.819702148438	-340.3499450683595	19.24176788330079	759.538024902344	-262.8598937988282	-25.33726882934572	771.1718139648442	-329.421600341797	2.640980005264283	664.2052001953127	-261.543670654297	-19.86789703369141	696.5134887695315	-357.0639953613282	
